<svg xmlns="http://www.w3.org/2000/svg" viewBox="0 0 64 64">
    <title>Artboard-36</title>
    <g id="Trolley">
        <path
            d="M63,12H48.96c.03.33.04.66.04,1a14,14,0,0,1-28,0c0-.34.01-.67.04-1H8.67L6.98,3.8A1,1,0,0,0,6,3H1A1,1,0,0,0,1,5H5.18c2.25,10.92.5,2.37,7.84,38.2l1.67,8.98a1.038,1.038,0,0,0,.98.82h5.87a6,6,0,1,0,8.92,0H45.54a6,6,0,1,0,8.92,0H60a1,1,0,0,0,0-2H16.51l-1.34-7.2,48.01-8.82A.988.988,0,0,0,64,34V13A1,1,0,0,0,63,12ZM26,60a3,3,0,1,1,3-3A3,3,0,0,1,26,60Zm24,0a3,3,0,1,1,3-3A3,3,0,0,1,50,60Z"
            style="fill:#232328" />
        <circle cx="26" cy="57" r="1" style="fill:#232328" />
        <circle cx="50" cy="57" r="1" style="fill:#232328" />
        <path d="M38,15.5A1.5,1.5,0,0,0,36.5,14H36v3h.5A1.5,1.5,0,0,0,38,15.5Z" style="fill:#232328" />
        <path d="M33.5,12H34V9h-.5a1.5,1.5,0,0,0,0,3Z" style="fill:#232328" />
        <path
            d="M35,25A12,12,0,1,0,23,13,12.013,12.013,0,0,0,35,25ZM33.5,7H34V6a1,1,0,0,1,2,0V7h2a1,1,0,0,1,0,2H36v3h.5a3.5,3.5,0,0,1,0,7H36v1a1,1,0,0,1-2,0V19H32a1,1,0,0,1,0-2h2V14h-.5a3.5,3.5,0,0,1,0-7Z"
            style="fill:#232328" />
    </g>
</svg>